<svg viewBox="0 0 100 100" xmlns="http://www.w3.org/2000/svg">
  <rect width="100" height="100" fill="#000"/>
  <path d="M85 50 C85 28 70 12 50 12 C30 12 15 28 15 50 C15 65 23 78 35 84 L35 74 C27 69 23 60 23 50 C23 32 35 20 50 20 C65 20 77 32 77 50 C77 63 70 74 57 78 L57 68 L42 82 L57 96 L57 86 C73 81 85 67 85 50Z" fill="#f59e0b"/>
  <line x1="34" y1="30" x2="34" y2="65" stroke="#fff" stroke-width="5.5" stroke-linecap="round"/>
  <line x1="34" y1="30" x2="66" y2="65" stroke="#fff" stroke-width="5.5" stroke-linecap="round"/>
  <line x1="66" y1="30" x2="66" y2="65" stroke="#fff" stroke-width="5.5" stroke-linecap="round"/>
</svg>